<svg width="177" height="32" viewBox="0 0 177 32" fill="none" xmlns="http://www.w3.org/2000/svg">
<g clip-path="url(#clip0_3291_25695)">
<path d="M133.004 20.834C133.004 22.8985 132.516 24.7104 131.525 26.2717C130.541 27.8332 129.137 29.0494 127.311 29.9227C125.493 30.7959 123.37 31.2316 120.949 31.2316C118.833 31.2316 116.882 30.871 115.106 30.1404C113.329 29.4022 111.816 28.3709 110.578 27.0197L113.38 24.2246L115.404 22.2103C115.825 22.831 116.429 23.3592 117.198 23.7871C117.346 23.8718 117.503 23.9548 117.668 24.03C118.669 24.508 119.718 24.7432 120.817 24.7432C121.751 24.7432 122.577 24.5755 123.296 24.2478C124.016 23.92 124.578 23.4421 124.99 22.829C125.394 22.2161 125.601 21.4778 125.601 20.6142C125.601 19.7506 125.386 19.0201 124.964 18.3994C124.544 17.7864 123.94 17.3257 123.171 17.0057C122.395 16.6877 121.468 16.5354 120.394 16.5354C119.832 16.5354 119.245 16.5682 118.642 16.6357C118.038 16.7108 117.559 16.8207 117.196 16.9537C117.196 16.9537 117.19 16.9563 117.178 16.9614V12.7496L117.196 12.7323L122.277 7.16141H117.196V0.763672H132.373V4.9331L125.846 11.9804C127.019 12.0981 128.093 12.4412 129.069 13.0291C130.284 13.7597 131.243 14.7909 131.945 16.1248C132.655 17.4588 133.002 19.0278 133.002 20.832L133.004 20.834Z" fill="#FF6700"/>
<path d="M154.357 15.3537C153.44 13.8213 152.212 12.6031 150.674 11.701C149.137 10.7988 147.422 10.3478 145.532 10.3478C145.494 10.3478 145.462 10.3517 145.426 10.3517L152.599 0.763672H144.135L135.544 13.0541C133.85 15.5754 133.004 18.0813 133.004 20.5737C133.004 22.5804 133.505 24.3924 134.507 26.0096C135.507 27.6288 136.863 28.9029 138.569 29.834C140.275 30.765 142.2 31.2316 144.345 31.2316C146.491 31.2316 148.457 30.7592 150.163 29.8128C151.87 28.8683 153.223 27.5941 154.226 25.9884C155.226 24.3846 155.728 22.565 155.728 20.5313C155.728 18.6134 155.268 16.8862 154.353 15.3537H154.357ZM147.968 22.6171C147.615 23.2897 147.128 23.814 146.507 24.1861C145.887 24.5581 145.168 24.7451 144.349 24.7451C143.531 24.7451 142.853 24.5581 142.233 24.1861C141.612 23.814 141.127 23.2917 140.773 22.6171C140.42 21.9443 140.243 21.1925 140.243 20.3617C140.243 19.5309 140.42 18.7868 140.773 18.1276C141.127 17.4684 141.612 16.946 142.233 16.5585C142.853 16.1711 143.558 15.9783 144.349 15.9783C145.14 15.9783 145.887 16.1653 146.507 16.5373C147.128 16.9093 147.615 17.4336 147.968 18.1064C148.321 18.781 148.497 19.5328 148.497 20.3637C148.497 21.1944 148.321 21.9462 147.968 22.6189V22.6171Z" fill="#FF6700"/>
<path d="M174.883 15.6545C174.094 14.122 172.93 12.8903 171.393 11.9593C169.856 11.0282 167.943 10.5637 165.658 10.5637C164.755 10.5637 163.973 10.635 163.311 10.7776C163.13 10.8162 162.954 10.8625 162.779 10.9144L163.25 7.1672H174.419V0.763672H157.194L155.713 14.7735L158.677 17.5243C159.326 17.0366 160.051 16.6568 160.856 16.3851C161.66 16.1133 162.542 15.9764 163.5 15.9764C164.571 15.9764 165.49 16.1634 166.251 16.5354C167.012 16.9075 167.598 17.424 168.006 18.0833C168.415 18.7425 168.62 19.5155 168.62 20.4041C168.62 21.2927 168.415 22.0599 168.006 22.7037C167.596 23.3476 167.032 23.8487 166.313 24.2073C165.594 24.5658 164.739 24.7451 163.753 24.7451C162.652 24.7451 161.6 24.508 160.599 24.0357C159.597 23.5635 158.844 22.9544 158.335 22.2084L153.51 27.0216C154.723 28.369 156.266 29.4061 158.144 30.1366C160.019 30.8672 161.987 31.2315 164.047 31.2315C166.501 31.2315 168.623 30.7862 170.416 29.8996C172.207 29.0109 173.597 27.7715 174.583 26.1812C175.571 24.5909 176.064 22.7654 176.064 20.701C176.064 18.8678 175.67 17.185 174.879 15.6526L174.883 15.6545Z" fill="#FF6700"/>
<path d="M80.3206 16.5566C79.7 15.9301 78.9634 15.4116 78.1187 14.9876C78.6976 14.6579 79.2196 14.282 79.6639 13.8483C81.0305 12.5182 81.7196 10.8316 81.7196 8.79796C81.7196 7.28286 81.3494 5.92003 80.6186 4.7172C79.8822 3.51437 78.8343 2.55442 77.4657 1.83928C76.099 1.12221 74.4798 0.763672 72.6176 0.763672H58.9941V31.2354H72.3253C74.4134 31.2354 76.2243 30.8479 77.7637 30.075C79.2975 29.3019 80.4876 28.2456 81.34 26.9156C82.1847 25.5797 82.608 24.0589 82.608 22.3356C82.608 20.0186 81.8468 18.091 80.3225 16.5586L80.3206 16.5566ZM66.4427 6.48097H70.801C71.7881 6.48097 72.5967 6.72963 73.2327 7.22888C73.8686 7.73199 74.1818 8.51075 74.1818 9.57093C74.1818 10.6311 73.8686 11.4157 73.2327 11.9129C72.5967 12.4161 71.7862 12.6647 70.801 12.6647H66.4427V6.48097ZM74.0793 24.508C73.3902 25.1807 72.4506 25.5142 71.2661 25.5142H66.4427V18.2105H71.2661C72.0538 18.2105 72.7373 18.3589 73.3181 18.6615C73.8971 18.9642 74.3412 19.3921 74.6545 19.9492C74.962 20.5102 75.1195 21.1462 75.1195 21.8633C75.1195 22.9544 74.776 23.8353 74.0812 24.508H74.0793Z" fill="#0F1FEA"/>
<path d="M83.918 31.2297V9.7002H91.3249V31.2297H83.918Z" fill="#0F1FEA"/>
<path d="M93.5645 31.2316V0.763672H100.928V31.2316H93.5645Z" fill="#0F1FEA"/>
<path d="M103.215 31.2315V0.763672H110.578V31.2315H103.215Z" fill="#0F1FEA"/>
<path d="M87.6195 8.28521C89.6648 8.28521 91.3229 6.60146 91.3229 4.52445C91.3229 2.44742 89.6648 0.763672 87.6195 0.763672C85.5741 0.763672 83.916 2.44742 83.916 4.52445C83.916 6.60146 85.5741 8.28521 87.6195 8.28521Z" fill="#FF6700"/>
<path d="M34.3198 0.763672L29.0826 18.6885L23.91 0.763672H17.8584L12.7067 18.6173L7.49039 0.763672H0L9.52149 31.2316H15.6566L20.8671 13.0985L26.11 31.2316H32.2052L41.7685 0.763672H34.3198Z" fill="#0F1FEA"/>
<path d="M53.2326 20.9882C53.1908 21.3988 53.0997 21.7939 52.9593 22.1795C52.7276 22.8349 52.3556 23.4305 51.8431 23.949C50.5295 25.2752 48.6617 25.6858 47.0007 25.175L51.1332 20.9882L57.3556 14.6868C56.9512 14.0314 56.4709 13.4204 55.9186 12.8498C55.3567 12.2793 54.7531 11.7936 54.1096 11.381C53.5401 11.0109 52.9365 10.7005 52.3157 10.4577C48.5155 8.92136 44.0035 9.71171 40.9207 12.8402C39.0529 14.737 38.0202 17.1697 37.8474 19.6543C37.7811 20.4851 37.8152 21.3332 37.9462 22.1641C38.1702 23.5827 38.6733 24.9745 39.4591 26.2256C39.8729 26.881 40.3513 27.492 40.9055 28.0625C41.4674 28.6255 42.0711 29.1188 42.7069 29.5314C46.8052 32.1915 52.3176 31.7135 55.9034 28.0799C57.5396 26.4183 58.5305 24.3461 58.8778 22.1891C58.9443 21.7863 58.9766 21.3911 58.9937 20.9902H53.2344L53.2326 20.9882ZM43.6143 19.6621C43.7718 18.6712 44.2255 17.7229 44.9773 16.9595C46.2832 15.6333 48.1586 15.2227 49.812 15.7335L43.7548 21.8673C43.5478 21.154 43.4985 20.3907 43.6143 19.6601V19.6621Z" fill="#0F1FEA"/>
</g>
<defs>
<clipPath id="clip0_3291_25695">
<rect width="177" height="32" fill="white"/>
</clipPath>
</defs>
</svg>
